{"title":"KARAR - THE DEAL (2014) (Hindi)1CD 700MB [AC3][SumoMan]","uid":11227383,"size":752590438,"categoryP":"video","categoryS":"movies","magnet":"?xt=urn:btih:c6cfab5e7ee3f621fa2efbbb53150d92a7132a57&amp;dn=KARAR+-+THE+DEAL+%282014%29+%28Hindi%291CD+700MB+%5BAC3%5D%5BSumoMan%5D&amp;tr=udp%3A%2F%2Ftracker.openbittorrent.com%3A80&amp;tr=udp%3A%2F%2Fopen.demonii.com%3A1337&amp;tr=udp%3A%2F%2Ftracker.coppersurfer.tk%3A6969&amp;tr=udp%3A%2F%2Fexodus.desync.com%3A6969","seeders":6,"leechers":2,"uploader":"inovai","files":3,"time":1413469197,"description":"KARAR - THE DEAL (2014)\n\nCover:\n &lt;a href=&quot;\nhttp://s25.postimg.org/vkuu7evwf/9da203fe6c14620e.jpg&quot; rel=&quot;nofollow&quot; target=&quot;_NEW&quot;&gt;\nhttp://s25.postimg.org/vkuu7evwf/9da203fe6c14620e.jpg&lt;/a&gt;\n\nScreenshots:\n &lt;a href=&quot;\nhttp://m.primetimeshow.in/share-FEAD_543FB699.html&quot; rel=&quot;nofollow&quot; target=&quot;_NEW&quot;&gt;\nhttp://m.primetimeshow.in/share-FEAD_543FB699.html&lt;/a&gt;\n &lt;a href=&quot;\nhttp://m.primetimeshow.in/share-DBA4_543FB699.html&quot; rel=&quot;nofollow&quot; target=&quot;_NEW&quot;&gt;\nhttp://m.primetimeshow.in/share-DBA4_543FB699.html&lt;/a&gt;\n &lt;a href=&quot;\nhttp://m.primetimeshow.in/share-2AAA_543FB699.html&quot; rel=&quot;nofollow&quot; target=&quot;_NEW&quot;&gt;\nhttp://m.primetimeshow.in/share-2AAA_543FB699.html&lt;/a&gt;\n &lt;a href=&quot;\nhttp://m.primetimeshow.in/share-3BDE_543FB699.html&quot; rel=&quot;nofollow&quot; target=&quot;_NEW&quot;&gt;\nhttp://m.primetimeshow.in/share-3BDE_543FB699.html&lt;/a&gt;\n &lt;a href=&quot;\nhttp://m.primetimeshow.in/share-B54C_543FB699.html&quot; rel=&quot;nofollow&quot; target=&quot;_NEW&quot;&gt;\nhttp://m.primetimeshow.in/share-B54C_543FB699.html&lt;/a&gt;\n\nGeneral Info:\n\nFormat : Matroska\nFormat version : Version 4 / Version 2\nFile size : 701 MiB\nDuration : 2h 0mn\nOverall bit rate : 811 Kbps\nMovie name : KARAR - THE DEAL (2014) (Hindi)1CD 700MB [AC3 5.1CH][SumoMan]\n\nVideo\nID : 1\nFormat : AVC\nFormat/Info : Advanced Video Codec\nFormat profile : &lt;a class=&quot;__cf_email__&quot; href=&quot;/cdn-cgi/l/email-protection&quot; data-cfemail=&quot;b5fddcd2ddf5f9869b85&quot;&gt;[email&amp;#160;protected]&lt;/a&gt;&lt;script cf-hash='f9e31' type=&quot;text/javascript&quot;&gt;\n/* &lt;![CDATA[ */!function(){try{var t=&quot;currentScript&quot;in document?document.currentScript:function(){for(var t=document.getElementsByTagName(&quot;script&quot;),e=t.length;e--;)if(t[e].getAttribute(&quot;cf-hash&quot;))return t[e]}();if(t&amp;&amp;t.previousSibling){var e,r,n,i,c=t.previousSibling,a=c.getAttribute(&quot;data-cfemail&quot;);if(a){for(e=&quot;&quot;,r=parseInt(a.substr(0,2),16),n=2;a.length-n;n+=2)i=parseInt(a.substr(n,2),16)^r,e+=String.fromCharCode(i);e=document.createTextNode(e),c.parentNode.replaceChild(e,c)}}}catch(u){}}();/* ]]&gt; */&lt;/script&gt;\nFormat settings, CABAC : Yes\nFormat settings, ReFrames : 4 frames\nCodec ID : V_MPEG4/ISO/AVC\nDuration : 2h 0mn\nBit rate : 729 Kbps\nWidth : 640 pixels\nHeight : 272 pixels\nDisplay aspect ratio : 2.35:1\nFrame rate mode : Constant\nFrame rate : 29.970 fps\nColor space : YUV\nChroma subsampling : 4:2:0\nBit depth : 8 bits\nScan type : Progressive\nBits/(Pixel*Frame) : 0.140\nStream size : 617 MiB (88%)\nTitle : KARAR - THE DEAL (2014) (Hindi)1CD 700MB [AC3][SumoMan]\n\n\nAudio\nID : 2\nFormat : AC-3\nFormat/Info : Audio Coding 3\nMode extension : CM (complete main)\nFormat settings, Endianness : Big\nCodec ID : A_AC3\nDuration : 2h 0mn\nBit rate mode : Constant\nBit rate : 80.0 Kbps\nChannel(s) : 2 channels\nChannel positions : Front: L R\nSampling rate : 44.1 KHz\nBit depth : 16 bits\nCompression mode : Lossy\nStream size : 69.1 MiB (10%)\nLanguage : Hindi\nDefault : Yes\nForced : No\n\nThanks to SumoMan!!\n\nSeed n Enjoy!!","torrent":{"xt":"urn:btih:c6cfab5e7ee3f621fa2efbbb53150d92a7132a57","amp;dn":"KARAR+-+THE+DEAL+%282014%29+%28Hindi%291CD+700MB+%5BAC3%5D%5BSumoMan%5D","amp;tr":["udp%3A%2F%2Ftracker.openbittorrent.com%3A80","udp%3A%2F%2Fopen.demonii.com%3A1337","udp%3A%2F%2Ftracker.coppersurfer.tk%3A6969","udp%3A%2F%2Fexodus.desync.com%3A6969"],"infoHash":"c6cfab5e7ee3f621fa2efbbb53150d92a7132a57","infoHashBuffer":{"type":"Buffer","data":[198,207,171,94,126,227,246,33,250,46,251,187,83,21,13,146,167,19,42,87]},"announce":[],"urlList":[]}}